<svg xmlns="http://www.w3.org/2000/svg" xmlns:xlink="http://www.w3.org/1999/xlink" viewBox="0 0 2420.42 2420.42"><defs><style>.cls-1,.cls-12{fill:none;}.cls-2{fill:#fff;}.cls-3{clip-path:url(#clip-path);}.cls-4{fill:url(#Sfumatura_senza_nome_3);}.cls-5{clip-path:url(#clip-path-2);}.cls-6{fill:url(#Sfumatura_senza_nome_4);}.cls-7{clip-path:url(#clip-path-3);}.cls-8{fill:url(#Sfumatura_senza_nome_5);}.cls-9{clip-path:url(#clip-path-4);}.cls-10{fill:url(#Sfumatura_senza_nome_6);}.cls-11{fill:#990038;}.cls-11,.cls-33{fill-rule:evenodd;}.cls-12{stroke:#231916;stroke-miterlimit:22.93;stroke-width:0.57px;}.cls-13{clip-path:url(#clip-path-5);}.cls-14{fill:url(#Sfumatura_senza_nome_7);}.cls-15{clip-path:url(#clip-path-6);}.cls-16{fill:url(#Sfumatura_senza_nome_8);}.cls-17{clip-path:url(#clip-path-7);}.cls-18{fill:url(#Sfumatura_senza_nome_9);}.cls-19{clip-path:url(#clip-path-8);}.cls-20{fill:url(#Sfumatura_senza_nome_10);}.cls-21{clip-path:url(#clip-path-9);}.cls-22{fill:url(#Sfumatura_senza_nome_11);}.cls-23{clip-path:url(#clip-path-10);}.cls-24{fill:url(#Sfumatura_senza_nome_12);}.cls-25{clip-path:url(#clip-path-11);}.cls-26{fill:url(#Sfumatura_senza_nome_13);}.cls-27{clip-path:url(#clip-path-12);}.cls-28{fill:url(#Sfumatura_senza_nome_14);}.cls-29{clip-path:url(#clip-path-13);}.cls-30{fill:url(#Sfumatura_senza_nome_15);}.cls-31{clip-path:url(#clip-path-14);}.cls-32{fill:url(#Sfumatura_senza_nome_16);}.cls-33{fill:#102770;}</style><clipPath id="clip-path" transform="translate(-18.66 -10.15)"><path class="cls-1" d="M598.91,2132.59c385.72-89.44,592.87-278.66,677-538.61-118.32,16.18-171.82,42.79-223.63,52.31-97.16,238.16-294.39,398.58-453.33,486.3"/></clipPath><linearGradient id="Sfumatura_senza_nome_3" x1="1041.09" y1="777.02" x2="365.56" y2="267.67" gradientTransform="matrix(1, 0, 0, -1, -18.66, 2551.97)" gradientUnits="userSpaceOnUse"><stop offset="0" stop-color="#00478f"/><stop offset="1" stop-color="#29c4ff"/></linearGradient><clipPath id="clip-path-2" transform="translate(-18.66 -10.15)"><path class="cls-1" d="M757.54,2292.12c352-181.32,506.41-415.57,524.18-688.2-110.74,44.7-156.08,83.63-204,105.56-35.78,254.71-187.64,458.61-320.21,582.64"/></clipPath><linearGradient id="Sfumatura_senza_nome_4" x1="1147.93" y1="785.36" x2="589.45" y2="39.91" xlink:href="#Sfumatura_senza_nome_3"/><clipPath id="clip-path-3" transform="translate(-18.66 -10.15)"><path class="cls-1" d="M990.29,2356.34c243.14-224.74,315.24-448,268.65-671.66-79.25,60.77-107.09,102.26-140.78,130.63,28.07,213.24-48.75,411.48-127.87,541"/></clipPath><linearGradient id="Sfumatura_senza_nome_5" x1="1211.56" y1="789.6" x2="1046.91" y2="147.93" xlink:href="#Sfumatura_senza_nome_3"/><clipPath id="clip-path-4" transform="translate(-18.66 -10.15)"><path class="cls-1" d="M130.35,980.69c133.68-622.8,962.64,167.09,1084,401.22,0,0,269.14,533.3-69.78,952,224.69-463-147-662.16-477.11-779.91-368.35-131.4-312.55-403.89-442.09-469.35-64.05-32.37-132.12,0-168.58,65.54-9.65-57.35-4.44-101.59,73.56-169.5"/></clipPath><linearGradient id="Sfumatura_senza_nome_6" x1="686" y1="2084.98" x2="785.68" y2="993.47" gradientTransform="matrix(1, 0, 0, -1, -18.66, 2551.97)" gradientUnits="userSpaceOnUse"><stop offset="0" stop-color="#ffce4b"/><stop offset="1" stop-color="#d3226f"/></linearGradient><clipPath id="clip-path-5" transform="translate(-18.66 -10.15)"><path class="cls-1" d="M839.87,1608.26c79.93-197.39,60.72-347.06-27.66-464.45-29.47,57.07-52.37,105.74-64.21,131.53,52.85,135.45,88.83,272.6,91.87,333"/></clipPath><linearGradient id="Sfumatura_senza_nome_7" x1="828.7" y1="1234.65" x2="871.19" y2="837.92" gradientTransform="matrix(1, 0, 0, -1, -18.66, 2551.97)" gradientUnits="userSpaceOnUse"><stop offset="0" stop-color="#00478f"/><stop offset="1" stop-color="#51f4e9"/></linearGradient><clipPath id="clip-path-6" transform="translate(-18.66 -10.15)"><path class="cls-1" d="M991.92,1637.83c81.25-288.12,31.35-494.28-110.24-644.69-32.33,84.29-56.88,155.81-69.45,193.61,94.73,181.11,166.14,367.19,179.69,451.08"/></clipPath><linearGradient id="Sfumatura_senza_nome_8" x1="928.91" y1="1345.04" x2="1017.74" y2="711.55" xlink:href="#Sfumatura_senza_nome_3"/><clipPath id="clip-path-7" transform="translate(-18.66 -10.15)"><path class="cls-1" d="M1211.81,1630.5c43.16-328.28-44.21-546-223.08-688.14-22,97.4-46.7,162.16-54.45,205.53,132.45,183.19,249.37,392.94,277.53,482.61"/></clipPath><linearGradient id="Sfumatura_senza_nome_9" x1="947" y1="1569.57" x2="1264.87" y2="936.81" gradientTransform="matrix(1, 0, 0, -1, -18.66, 2551.97)" gradientUnits="userSpaceOnUse"><stop offset="0" stop-color="#003780"/><stop offset="1" stop-color="#b222d3"/></linearGradient><clipPath id="clip-path-8" transform="translate(-18.66 -10.15)"><path class="cls-1" d="M1383.54,1620.53c59.23-373.42-72.19-593.89-322.93-722-19.36,35.66-37.41,70.24-53.69,102.26,176.24,206.44,344,505.19,376.62,619.7"/></clipPath><linearGradient id="Sfumatura_senza_nome_10" x1="1239.15" y1="1293.03" x2="1640" y2="1025.38" gradientTransform="matrix(1, 0, 0, -1, -18.66, 2551.97)" gradientUnits="userSpaceOnUse"><stop offset="0" stop-color="#4e046d"/><stop offset="1" stop-color="#ff8bc7"/></linearGradient><clipPath id="clip-path-9" transform="translate(-18.66 -10.15)"><path class="cls-1" d="M1714.53,1504.09c-71.62-430-308.4-603.66-644.9-629-14.45,26.14-28.21,51.85-41.1,76.51,269.36,135.47,604.92,434,686,552.49"/></clipPath><linearGradient id="Sfumatura_senza_nome_11" x1="1068.59" y1="1644.46" x2="1881.84" y2="914.47" xlink:href="#Sfumatura_senza_nome_10"/><clipPath id="clip-path-10" transform="translate(-18.66 -10.15)"><path class="cls-1" d="M2008.35,1297.34c-219.65-441-529-564.36-896-497-22.1,37.42-43.2,75.26-62.75,111.64,350.19,61.36,827.12,280.36,958.75,385.36"/></clipPath><linearGradient id="Sfumatura_senza_nome_12" x1="1443.27" y1="1590.6" x2="2054.59" y2="1279.2" gradientTransform="matrix(1, 0, 0, -1, -18.66, 2551.97)" gradientUnits="userSpaceOnUse"><stop offset="0" stop-color="#b91c58"/><stop offset="1" stop-color="#f95c97"/></linearGradient><clipPath id="clip-path-11" transform="translate(-18.66 -10.15)"><path class="cls-1" d="M2146.41,1046.9C1858.49,642.63,1531,570.9,1176,698.51c-25,37.38-49.46,77.21-72.75,117.24C1459.72,812,1995,960.8,2146.41,1046.9"/></clipPath><linearGradient id="Sfumatura_senza_nome_13" x1="1282.73" y1="1817.03" x2="2284.54" y2="1630.13" gradientTransform="matrix(1, 0, 0, -1, -18.66, 2551.97)" gradientUnits="userSpaceOnUse"><stop offset="0" stop-color="#b91c58"/><stop offset="1" stop-color="#ff8bc7"/></linearGradient><clipPath id="clip-path-12" transform="translate(-18.66 -10.15)"><path class="cls-1" d="M2087.94,762.87c-291.15-295.59-570.87-309-846.93-153.78-26.2,32.58-52.54,69.9-78.22,109.46,287.2-62.81,783.35-8.72,925.15,44.32"/></clipPath><linearGradient id="Sfumatura_senza_nome_14" x1="2038.63" y1="1881.32" x2="1351.83" y2="2001.68" xlink:href="#Sfumatura_senza_nome_6"/><clipPath id="clip-path-13" transform="translate(-18.66 -10.15)"><path class="cls-1" d="M968.63,1090.34c191-324.25,410.82-744.41,990.89-802.42C1368.05,206.06,1020.86,631.58,762,930.34,576.91,1143.9,437,1292.68,285.18,1145c50.35,84,75,222.67,225.44,329.48,210,14.72,327.29-162.25,458-384.13"/></clipPath><linearGradient id="Sfumatura_senza_nome_15" x1="841.23" y1="997.53" x2="1262.39" y2="2071.61" gradientTransform="matrix(1, 0, 0, -1, -18.66, 2551.97)" gradientUnits="userSpaceOnUse"><stop offset="0" stop-color="#00478f"/><stop offset="1" stop-color="#c11fda"/></linearGradient><clipPath id="clip-path-14" transform="translate(-18.66 -10.15)"><path class="cls-1" d="M2148.91,517.17c-309-219.3-579-116.31-579-116.31-148.53,78-261.79,187.27-355.19,306.42C1347,540.54,1986.48,487.28,2149,517.17"/></clipPath><linearGradient id="Sfumatura_senza_nome_16" x1="2051.81" y1="2023.01" x2="1093.02" y2="2117.69" xlink:href="#Sfumatura_senza_nome_6"/></defs><g id="Livello_2" data-name="Livello 2"><circle class="cls-2" cx="1210.21" cy="1210.21" r="1210.21"/></g><g id="Layer_1" data-name="Layer 1"><g class="cls-3"><rect class="cls-4" x="580.25" y="1583.83" width="676.97" height="538.61"/></g><g class="cls-5"><rect class="cls-6" x="738.88" y="1593.76" width="524.18" height="688.2"/></g><g class="cls-7"><rect class="cls-8" x="971.64" y="1674.55" width="315.24" height="671.66"/></g><g class="cls-9"><rect class="cls-10" x="28.48" y="347.74" width="1436.39" height="1975.98"/></g><path class="cls-11" d="M1172.84,2269.13C1333.74,1852,981.78,1666.07,667.49,1554c-368.35-131.4-312.55-403.89-442.09-469.35-64.05-32.37-132.12,0-168.58,65.54,0,0,131-423.7,666.57,55.42,0,0,743.57,333.06,449.45,1063.56" transform="translate(-18.66 -10.15)"/><path class="cls-12" d="M285.18,1145c364.11,354.28,660-997.41,1674.34-857.07-977,97.7-931.95,1222.78-1448.9,1186.55" transform="translate(-18.66 -10.15)"/><g class="cls-13"><rect class="cls-14" x="729.34" y="1133.66" width="171.8" height="464.45"/></g><g class="cls-15"><rect class="cls-16" x="793.58" y="982.99" width="260.93" height="644.68"/></g><g class="cls-17"><rect class="cls-18" x="915.62" y="932.21" width="320.69" height="688.14"/></g><g class="cls-19"><rect class="cls-20" x="988.27" y="888.41" width="435.85" height="721.97"/></g><g class="cls-21"><rect class="cls-22" x="1009.87" y="864.94" width="686" height="629"/></g><g class="cls-23"><rect class="cls-24" x="1030.89" y="722.83" width="958.83" height="564.39"/></g><g class="cls-25"><rect class="cls-26" x="1084.6" y="560.77" width="1043.16" height="475.98"/></g><g class="cls-27"><rect class="cls-28" x="1144.14" y="443.73" width="925.14" height="308.99"/></g><g class="cls-29"><rect class="cls-30" x="266.53" y="195.91" width="1674.34" height="1283.11"/></g><g class="cls-31"><rect class="cls-32" x="1196.03" y="287.71" width="934.23" height="409.42"/></g><path class="cls-33" d="M881.68,993.14c-331.44,510.57-525.55,299.94-525.55,299.94,31.54,60.92,75.82,125.5,154.49,181.37,210,14.72,327.29-162.25,458-384.13,191-324.25,410.82-744.41,990.89-802.42C1284.26,279.84,881.68,993.14,881.68,993.14" transform="translate(-18.66 -10.15)"/></g></svg>